<?xml version="1.0" standalone="no"?>
<!DOCTYPE svg PUBLIC "-//W3C//DTD SVG 20010904//EN"
 "http://www.w3.org/TR/2001/REC-SVG-20010904/DTD/svg10.dtd">
<svg version="1.0" xmlns="http://www.w3.org/2000/svg"
 width="60.000000pt" height="60.000000pt" viewBox="0 0 60.000000 60.000000"
 preserveAspectRatio="xMidYMid meet">
<metadata>
Created by potrace 1.12, written by Peter Selinger 2001-2015
</metadata>
<g transform="translate(0.000000,60.000000) scale(0.100000,-0.100000)"
fill="#f05042" stroke="none">
<path d="M225 587 c-137 -46 -219 -153 -219 -287 0 -262 319 -394 502 -207
117 119 116 300 -1 415 -76 74 -195 107 -282 79z m201 -83 c30 -18 60 -48 79
-78 27 -44 30 -58 30 -126 0 -68 -3 -82 -30 -126 -19 -30 -49 -60 -79 -79 -44
-27 -58 -30 -126 -30 -68 0 -82 3 -126 30 -159 99 -150 335 18 419 74 38 163
34 234 -10z"/>
<path d="M276 444 c-3 -9 -6 -46 -6 -83 l0 -67 75 -74 c71 -70 76 -73 92 -57
16 16 14 20 -45 80 l-62 63 0 61 c0 74 -6 93 -30 93 -10 0 -21 -7 -24 -16z"/>
</g>
</svg>
