<?xml version="1.0" encoding="UTF-8" ?>
<!DOCTYPE svg PUBLIC "-//W3C//DTD SVG 1.1//EN" "http://www.w3.org/Graphics/SVG/1.1/DTD/svg11.dtd">
<svg width="961pt" height="481pt" viewBox="0 0 961 481" version="1.1" xmlns="http://www.w3.org/2000/svg">
<path fill="transparent" d=" M 0.00 0.00 L 961.00 0.00 L 961.00 481.00 L 0.00 481.00 L 0.00 0.00 Z" />
<path fill="#ffffff" d=" M 82.93 85.31 C 96.05 82.39 109.64 82.43 122.91 84.11 C 136.42 85.16 149.83 87.00 163.25 88.82 C 162.96 107.52 164.65 126.20 166.99 144.74 C 163.28 145.37 159.57 146.05 155.86 146.69 C 153.67 129.57 145.84 111.75 130.49 102.61 C 120.91 96.54 108.96 96.35 98.10 98.12 C 87.72 99.78 77.64 104.96 71.41 113.60 C 63.43 124.29 61.56 138.25 62.40 151.24 C 63.06 159.81 66.43 168.26 72.56 174.39 C 77.73 179.92 83.70 184.67 90.17 188.61 C 100.63 194.87 111.50 200.41 122.58 205.47 C 141.85 214.84 160.37 227.95 170.80 247.17 C 176.10 256.53 178.29 267.32 178.93 277.97 C 179.13 285.32 179.27 292.72 177.98 299.99 C 174.52 322.53 159.58 342.52 139.85 353.62 C 120.25 364.68 97.13 368.35 74.87 366.70 C 56.41 364.95 38.90 357.92 22.46 349.68 C 20.42 329.83 17.84 310.05 15.83 290.20 C 19.57 289.46 23.27 288.52 27.03 287.89 C 29.19 304.39 35.01 321.06 46.71 333.25 C 56.89 343.76 71.34 350.06 86.02 349.77 C 100.21 350.31 114.85 345.03 124.66 334.60 C 136.43 321.70 137.84 301.89 131.61 286.11 C 127.11 276.12 118.65 268.55 109.95 262.19 C 99.97 255.49 89.34 249.82 78.56 244.54 C 67.70 239.19 57.31 232.79 48.00 225.04 C 39.65 217.95 32.74 209.20 27.65 199.52 C 21.24 186.41 19.92 171.40 20.73 157.01 C 21.63 139.02 28.47 121.09 40.93 107.93 C 51.94 95.99 67.20 88.69 82.93 85.31 Z" />
<path fill="#ffffff" d=" M 231.08 132.17 C 238.57 124.84 245.58 117.02 252.11 108.83 C 253.61 109.55 255.10 110.31 256.56 111.11 C 256.44 123.74 256.54 136.37 256.51 149.00 C 270.85 149.05 285.20 148.91 299.55 149.07 C 299.46 155.70 299.50 162.33 299.53 168.97 C 285.19 169.04 270.85 168.98 256.51 169.00 C 256.51 201.68 256.48 234.36 256.52 267.04 C 256.61 273.09 257.55 280.52 263.52 283.66 C 273.92 289.55 287.31 286.84 296.82 280.34 C 298.50 282.43 300.13 284.55 301.68 286.73 C 291.34 299.47 278.70 312.53 261.78 315.37 C 250.35 316.97 237.49 316.43 228.09 308.89 C 219.14 302.29 216.11 290.64 216.00 280.02 C 216.00 243.02 216.00 206.01 216.00 169.00 C 208.83 169.00 201.67 169.00 194.50 169.00 C 194.48 166.07 194.48 163.15 194.54 160.22 C 208.18 152.98 220.09 142.92 231.08 132.17 Z" />
<path fill="#ffffff" d=" M 351.98 168.00 C 363.91 155.11 380.33 146.11 397.92 144.35 C 408.97 143.42 420.52 143.73 430.84 148.24 C 441.51 152.66 450.46 160.89 455.98 171.01 C 461.92 182.00 464.27 194.70 463.78 207.12 C 462.42 208.46 461.03 209.76 459.60 211.01 C 427.14 210.98 394.68 211.00 362.22 211.00 C 362.68 229.33 366.24 248.46 377.40 263.47 C 386.47 275.98 401.43 284.35 417.08 283.77 C 433.63 284.53 450.10 277.01 460.73 264.37 C 462.91 266.52 464.74 268.99 466.81 271.25 C 457.62 287.57 443.98 301.93 426.74 309.75 C 412.74 316.35 396.51 317.69 381.46 314.36 C 363.30 310.05 348.07 296.89 339.21 280.70 C 319.87 245.34 324.78 197.97 351.98 168.00 Z" />
<path fill="#ffffff" d=" M 559.05 149.02 C 563.26 146.48 567.96 144.64 572.89 144.28 C 587.16 143.16 602.88 144.26 614.58 153.42 C 625.13 161.47 629.45 175.17 629.76 187.99 C 629.76 212.67 629.75 237.35 629.76 262.03 C 630.13 270.02 629.74 278.21 632.19 285.93 C 633.17 289.27 636.36 291.81 639.88 291.77 C 644.14 292.25 647.89 289.66 651.08 287.17 C 652.72 289.36 654.32 291.58 655.89 293.83 C 647.76 302.96 638.87 313.34 626.14 315.45 C 618.08 316.57 609.13 316.70 602.13 311.92 C 594.61 306.42 591.14 296.95 590.42 287.95 C 582.85 295.29 574.58 301.93 565.76 307.72 C 556.70 313.58 545.78 316.39 535.02 316.02 C 523.03 316.35 510.70 311.36 503.05 301.98 C 496.43 293.59 495.10 282.19 496.52 271.89 C 497.49 264.24 501.51 257.24 507.03 251.97 C 512.47 246.78 519.10 242.99 525.97 240.02 C 546.66 231.32 568.18 224.84 589.25 217.16 C 589.19 209.43 589.31 201.70 589.21 193.97 C 588.89 186.24 586.27 177.75 579.39 173.41 C 571.48 167.68 561.23 167.70 551.94 168.60 C 547.08 169.07 541.88 170.64 538.85 174.71 C 534.59 180.13 533.84 187.24 533.39 193.88 C 532.93 198.41 528.74 201.10 525.14 203.18 C 519.21 206.16 512.56 208.36 505.85 207.94 C 502.92 207.58 501.10 204.78 500.87 202.02 C 499.94 193.31 503.13 184.40 509.18 178.10 C 514.67 171.71 522.51 168.26 529.87 164.56 C 539.67 159.52 549.53 154.58 559.05 149.02 Z" />
<path fill="#ffffff" d=" M 732.15 144.04 C 733.80 144.06 735.11 145.42 736.55 146.15 C 736.49 154.54 736.44 162.93 736.58 171.31 C 743.53 161.71 751.92 152.70 762.81 147.58 C 769.85 143.90 778.16 143.14 785.89 144.65 C 791.91 146.12 798.25 149.55 800.31 155.79 C 802.55 162.45 802.42 170.16 799.25 176.50 C 794.62 184.79 783.66 187.98 774.92 185.08 C 769.47 182.45 766.00 177.12 760.94 173.98 C 753.84 171.40 746.24 175.32 741.42 180.50 C 737.31 185.33 736.70 191.95 736.51 198.02 C 736.49 226.69 736.51 255.36 736.51 284.03 C 736.70 287.84 735.83 291.92 737.54 295.49 C 739.10 297.97 742.24 298.65 744.95 298.99 C 752.84 300.02 760.83 299.65 768.77 300.03 C 768.75 303.68 768.75 307.34 768.76 310.99 C 759.82 311.13 750.89 310.64 741.96 310.50 C 729.65 310.00 717.33 310.37 705.01 310.24 C 694.26 310.41 683.51 311.10 672.75 311.00 C 672.74 307.35 672.75 303.69 672.75 300.05 C 679.06 299.59 685.63 300.16 691.67 297.92 C 694.48 296.94 696.03 293.94 695.99 291.07 C 696.02 259.72 695.99 228.36 696.00 197.00 C 695.95 191.94 696.37 186.63 694.42 181.84 C 693.32 178.90 690.21 177.55 687.40 176.80 C 682.74 175.63 677.94 175.13 673.24 174.16 C 673.24 171.06 673.24 167.96 673.24 164.86 C 693.84 161.04 713.09 152.44 732.15 144.04 Z" />
<path fill="#ffffff" d=" M 838.74 166.71 C 848.10 152.87 864.65 145.46 880.95 144.16 C 890.69 143.70 900.58 143.86 910.11 146.14 C 917.15 147.85 924.13 149.90 930.85 152.65 C 929.81 165.39 928.99 178.20 930.03 190.97 C 926.59 191.58 923.15 192.21 919.71 192.81 C 919.02 186.06 917.55 179.34 914.66 173.18 C 912.61 168.88 910.08 164.53 905.98 161.88 C 899.29 157.37 890.79 156.71 882.97 157.47 C 874.90 158.80 866.51 163.69 863.99 171.91 C 861.57 180.20 863.71 189.89 870.05 195.92 C 881.31 207.41 897.10 212.25 910.59 220.38 C 921.59 227.13 931.97 236.59 935.87 249.26 C 938.27 258.62 938.09 268.63 936.01 278.04 C 932.54 293.05 920.74 305.28 906.47 310.64 C 887.59 317.82 866.07 317.97 847.06 311.18 C 842.63 309.59 837.90 308.55 833.70 306.51 C 832.48 293.19 831.48 279.85 830.43 266.52 C 833.83 265.77 837.24 265.06 840.65 264.30 C 842.08 276.06 846.74 288.07 856.01 295.84 C 864.85 303.37 877.98 304.82 888.55 300.33 C 892.90 298.38 897.17 295.67 899.68 291.49 C 905.07 282.46 903.56 269.54 895.16 262.80 C 881.50 250.19 862.49 245.85 848.52 233.69 C 840.26 226.53 833.19 217.16 831.34 206.16 C 829.05 192.74 830.79 178.08 838.74 166.71 Z" />
<path fill="#f05042" d=" M 378.58 166.57 C 384.51 160.79 392.58 156.84 401.00 157.21 C 408.04 156.83 414.76 160.58 419.08 165.98 C 425.12 173.49 427.32 183.76 425.70 193.18 C 425.29 196.34 422.53 198.68 419.49 199.21 C 414.09 200.30 408.56 199.40 403.11 199.93 C 389.78 200.08 376.45 199.97 363.12 199.99 C 365.44 187.87 369.66 175.47 378.58 166.57 Z" />
<path fill="#f05042" d=" M 550.40 245.39 C 562.04 237.37 576.08 234.43 589.32 230.16 C 589.15 244.39 589.28 258.62 589.25 272.85 C 583.28 281.67 574.49 289.16 563.87 291.42 C 556.36 292.45 547.55 291.81 542.05 285.94 C 536.77 280.08 536.20 271.56 536.97 264.07 C 537.96 256.00 544.03 249.83 550.40 245.39 Z" />
<path fill="#ffffff" d=" M 230.01 339.24 C 462.00 339.25 694.00 339.25 925.99 339.24 C 926.00 343.00 926.01 346.76 925.98 350.52 C 694.00 350.51 462.03 350.46 230.06 350.55 C 229.95 346.78 230.00 343.00 230.01 339.24 Z" />
</svg>
